<?xml version="1.0" encoding="UTF-8" standalone="no"?>
<!-- Created with Inkscape (http://www.inkscape.org/) -->

<svg
   xmlns:dc="http://purl.org/dc/elements/1.1/"
   xmlns:cc="http://creativecommons.org/ns#"
   xmlns:rdf="http://www.w3.org/1999/02/22-rdf-syntax-ns#"
   xmlns:svg="http://www.w3.org/2000/svg"
   xmlns="http://www.w3.org/2000/svg"
   xmlns:sodipodi="http://sodipodi.sourceforge.net/DTD/sodipodi-0.dtd"
   xmlns:inkscape="http://www.inkscape.org/namespaces/inkscape"
   width="1000mm"
   height="1000mm"
   viewBox="0 0 1000 1000"
   version="1.1"
   id="svg8"
   sodipodi:docname="maze.svg"
   inkscape:version="0.48.5 r10040">
  <defs
     id="defs2" />
  <sodipodi:namedview
     id="base"
     pagecolor="#ffffff"
     bordercolor="#666666"
     borderopacity="1.0"
     inkscape:pageopacity="0.0"
     inkscape:pageshadow="2"
     inkscape:zoom="0.23299907"
     inkscape:cx="1786.4334"
     inkscape:cy="1791.7874"
     inkscape:document-units="mm"
     inkscape:current-layer="layer1"
     showgrid="false"
     inkscape:window-width="1008"
     inkscape:window-height="1008"
     inkscape:window-x="-7"
     inkscape:window-y="0"
     inkscape:window-maximized="0" />
  <metadata
     id="metadata5">
    <rdf:RDF>
      <cc:Work
         rdf:about="">
        <dc:format>image/svg+xml</dc:format>
        <dc:type
           rdf:resource="http://purl.org/dc/dcmitype/StillImage" />
        <dc:title />
      </cc:Work>
    </rdf:RDF>
  </metadata>
  <g
     inkscape:label="Layer 1"
     inkscape:groupmode="layer"
     id="layer1"
     transform="translate(0,703)">
    <ellipse
       id="path3723"
       cx="60.854164"
       cy="-628.38019"
       rx="13.229166"
       ry="11.244792"
       style="stroke-width:0.26458332"
       d="m 74.08333,-628.38019 c 0,6.21033 -5.922899,11.24479 -13.229166,11.24479 -7.306267,0 -13.229166,-5.03446 -13.229166,-11.24479 0,-6.21033 5.922899,-11.24479 13.229166,-11.24479 7.306267,0 13.229166,5.03446 13.229166,11.24479 z" />
    <ellipse
       id="path3725"
       cx="960.4375"
       cy="259.29688"
       rx="26.458332"
       ry="23.151041"
       style="stroke-width:0.26458332"
       d="m 986.89583,259.29687 c 0,12.78597 -11.8458,23.15105 -26.45833,23.15105 -14.61253,0 -26.45833,-10.36508 -26.45833,-23.15105 0,-12.78596 11.8458,-23.15104 26.45833,-23.15104 14.61253,0 26.45833,10.36508 26.45833,23.15104 z" />
    <path
       id="path15"
       d="m 393.72397,-716.74511 c 0.0954,4.6251 -0.38796,9.21838 -0.79849,13.81707 -0.11207,3.54703 -0.74363,7.02889 -1.25277,10.53037 -0.39984,2.84192 -0.40963,5.7088 -0.87911,8.54056 -0.71572,3.40568 -0.85992,6.88404 -0.98562,10.35026 -0.0855,3.68528 -0.0889,7.37207 -0.0804,11.05817 0.01,3.39832 0.004,6.79667 0.006,10.195 0.006,2.59362 0.0146,5.18723 0.0204,7.78084 0,0 -17.50869,8.9213 -17.50869,8.9213 v 0 c 0.005,-2.5996 0.0135,-5.19919 0.0167,-7.79879 0,-3.39816 -0.0146,-6.79633 -0.0101,-10.19448 0.009,-3.71048 0.003,-7.42123 0.0951,-11.13091 0.0823,-3.52898 0.12459,-7.09052 0.77221,-10.57047 0.55184,-2.81337 0.65709,-5.63414 0.94057,-8.48655 0.47913,-3.49579 1.25669,-6.94053 1.35797,-10.47882 0.43884,-4.52616 1.0768,-9.05388 0.79526,-13.61161 0,0 17.51028,-8.92194 17.51028,-8.92194 z"
       inkscape:connector-curvature="0"
       style="stroke-width:0.26458332" />
    <path
       id="path26"
       d="m 195.54159,-719.22787 c -0.11847,5.03487 -0.069,10.07166 -0.0342,15.10723 0.0209,3.24076 0.0509,6.48155 0.0371,9.72238 -0.005,2.98056 0.004,5.96113 0.008,8.94168 0.004,2.68883 0.004,5.37767 0.005,8.0665 2.7e-4,2.64333 2.2e-4,5.28665 1.8e-4,7.92997 0.007,2.77282 -0.007,5.54557 -0.0131,8.31835 -0.001,2.93114 0.006,5.86226 0.009,8.79339 0.003,2.67686 0.003,5.35371 0.004,8.03057 2e-4,2.64334 1.2e-4,5.28668 9e-5,7.93001 -3e-5,2.64519 -4e-5,5.29039 -5e-5,7.93558 0,1.76251 0,0.88326 0,2.64579 0,0 -17.52243,8.92812 -17.52243,8.92812 v 0 c 0,-1.76386 0,-0.88193 0,-2.64579 -1e-5,-2.64517 -2e-5,-5.29034 -6e-5,-7.93551 -3e-5,-2.64337 -1.1e-4,-5.28674 9e-5,-7.93011 2.7e-4,-2.67814 8e-4,-5.35627 0.004,-8.0344 0.003,-2.93428 0.0103,-5.86856 0.009,-8.80285 -0.006,-2.76832 -0.0206,-5.5366 -0.0131,-8.30496 -3e-5,-2.64338 -1.2e-4,-5.28676 1.8e-4,-7.93015 5.3e-4,-2.69045 0.001,-5.3809 0.005,-8.07135 0.004,-2.98321 0.0123,-5.96642 0.008,-8.94964 -0.0139,-3.25344 0.0164,-6.50684 0.0371,-9.7602 0.0344,-5.02392 0.085,-10.04912 -0.0343,-15.07233 0,0 17.49134,-8.91228 17.49134,-8.91228 z"
       inkscape:connector-curvature="0"
       style="stroke-width:0.26458332" />
    <path
       id="path31"
       d="m 193.93504,-636.88089 c -0.19247,7.67505 -0.14136,15.35378 -0.11036,23.03045 -0.0831,5.10455 0.003,10.1772 0.65957,15.24042 0.45729,3.73999 1.1946,7.43226 1.64251,11.17541 0.37111,3.68078 0.43364,7.38109 0.45773,11.07728 0.004,3.92464 0.0117,7.84923 -2.6e-4,11.77385 -0.0256,4.74125 -0.028,9.48257 -0.0512,14.22381 -0.0247,5.20091 0.0133,10.40177 0.0223,15.60265 0.0204,3.82995 0.0237,7.65993 0.0389,11.4899 0.0124,2.86861 0.0174,5.73724 0.0199,8.60587 0.002,2.64293 0.002,5.28586 0.002,7.9288 0.007,2.84416 -0.0131,5.68822 -0.0135,8.53237 0.002,1.95402 0.005,3.90803 0.008,5.86205 0,0 -17.51154,8.92257 -17.51154,8.92257 v 0 c 0.003,-1.95668 0.006,-3.91335 0.008,-5.87003 -5.3e-4,-2.83956 -0.0204,-5.67902 -0.0136,-8.51858 -5e-5,-2.64344 -2.6e-4,-5.28687 0.002,-7.9303 0.003,-2.8754 0.008,-5.7508 0.0199,-8.62618 0.0152,-3.84317 0.0185,-7.68635 0.0388,-11.5295 0.009,-5.20869 0.0468,-10.41736 0.0231,-15.62608 -0.022,-4.72677 -0.0228,-9.45361 -0.0384,-14.18041 -0.003,-3.91791 0.0249,-7.83585 -0.001,-11.7537 -0.0317,-3.63312 -0.0503,-7.2718 -0.37052,-10.89376 -0.38817,-3.74633 -1.13338,-7.42477 -1.6351,-11.15144 -0.61897,-5.18364 -0.7199,-10.35362 -0.5386,-15.57451 0.0307,-7.63916 0.0836,-15.28047 -0.11036,-22.91798 0,0 17.45341,-8.89296 17.45341,-8.89296 z"
       inkscape:connector-curvature="0"
       style="stroke-width:0.26458332" />
    <path
       id="path33"
       d="m 15.858238,-361.46107 c 6.682981,-1.2056 13.278051,-2.74469 20.02196,-3.62752 7.491566,-0.86233 15.035821,-0.99997 22.567747,-1.10437 5.925886,0.31483 11.836799,0.82415 17.766265,1.08148 5.610582,0.20881 11.225792,0.21955 16.839453,0.23032 4.897819,0.008 9.795597,-0.0143 14.693377,-0.0315 4.55153,-0.003 9.10306,0.008 13.65459,0.0124 4.43471,0.006 8.8693,-0.0222 13.304,-0.0169 4.77213,0.0103 9.54426,0.0164 14.31639,0.0198 4.9047,-0.0116 9.80943,-0.005 14.71414,-0.003 5.21413,0.003 10.42827,0.004 15.64241,0.005 4.8047,-0.005 9.60942,-0.005 14.4141,-0.0209 3.59434,-1.1e-4 7.18866,-0.0151 10.78299,-0.0233 2.74186,-0.006 5.48372,-0.007 8.22559,-0.008 0.43976,-5e-5 0.87953,-10e-5 1.31929,-1.6e-4 0,0 -15.91044,11.55962 -15.91044,11.55962 v 0 c -0.43963,-5e-5 -0.87925,-10e-5 -1.31888,-1.6e-4 -2.73479,0 -5.46959,-0.003 -8.20437,-0.008 -3.57291,-0.008 -7.14581,-0.0233 -10.71873,-0.0233 -4.78544,-0.0164 -9.57092,-0.0159 -14.35638,-0.0209 -5.21827,0 -10.43654,0 -15.65482,0.004 -4.90327,0.003 -9.80655,0.0103 -14.70982,-0.003 -4.79035,0.003 -9.58071,0.01 -14.37105,0.0198 -4.41934,0.005 -8.83856,-0.0233 -13.2579,-0.0164 -4.56596,0.006 -9.131915,0.0172 -13.697882,0.0206 -4.873228,-0.0103 -9.746448,-0.0212 -14.619679,-0.0315 -5.633474,-0.0254 -11.26953,-0.046 -16.898503,-0.29459 -5.875047,-0.30607 -11.733353,-0.88654 -17.615125,-1.04333 -7.471915,0.10282 -14.9592,0.28853 -22.377615,1.26683 -6.790772,1.02174 -13.4721687,2.53844 -20.19003191,3.94695 0,0 15.63892391,-11.89334 15.63892391,-11.89334 z"
       inkscape:connector-curvature="0"
       style="stroke-width:0.26458332" />
    <path
       id="path35"
       d="m 391.07805,-649.27636 c -0.11483,4.86555 -0.0693,9.73363 -0.0491,14.60013 0.0456,4.26984 0.0156,8.53965 -0.0309,12.8093 0.0452,5.64594 -0.14967,11.30011 0.13539,16.9406 0.33046,5.00313 1.37618,9.91881 1.97871,14.89136 0.28297,3.90127 0.61553,7.77951 1.13292,11.65757 0.47837,3.67466 0.63489,7.3759 0.73739,11.07639 0.0646,3.30267 0.0608,6.60645 0.0674,9.90968 0.004,2.77575 0.004,5.55152 0.004,8.32727 -2.6e-4,2.6437 0,5.28739 0,7.93109 0.005,2.90001 -0.006,5.79998 -0.0228,8.69995 -0.006,3.20853 0.008,6.41706 0.0148,9.62558 0.006,2.71449 0.007,5.42899 0.008,8.14348 0,2.64138 0,5.28277 0,7.92415 -3e-5,0.4405 -3e-5,0.88099 -3e-5,1.32148 0,0 -17.52261,8.92821 -17.52261,8.92821 v 0 c 0,-0.44048 0,-0.88097 -3e-5,-1.32145 -5e-5,-2.64147 -2.1e-4,-5.28294 0,-7.92442 0,-2.71714 0.003,-5.43429 0.008,-8.15143 0.007,-3.21355 0.0209,-6.42712 0.0148,-9.64068 -0.0167,-2.89219 -0.0275,-5.78439 -0.023,-8.67663 -3e-5,-2.64427 -1.6e-4,-5.28855 0.003,-7.93282 0.003,-2.77995 0.008,-5.55991 0.0196,-8.33984 0.0122,-3.29403 0.0241,-6.58814 -0.0212,-9.88202 -0.0623,-3.63818 -0.18275,-7.28019 -0.62688,-10.8953 -0.50226,-3.89774 -0.94932,-7.77734 -1.10421,-11.70824 -0.54393,-5.02424 -1.5426,-9.9841 -1.97033,-15.01853 -0.37562,-5.67281 -0.0721,-11.3631 -0.1811,-17.0451 -0.047,-4.25914 -0.0763,-8.51843 -0.0309,-12.77777 0.0201,-4.84981 0.0663,-9.70124 -0.0491,-14.55007 0,0 17.51029,-8.92194 17.51029,-8.92194 z"
       inkscape:connector-curvature="0"
       style="stroke-width:0.26458332" />
    <path
       id="path57"
       d="m 390.49616,-368.41805 c 5.09084,1.16525 10.09676,2.74804 15.02941,4.46317 5.26653,1.80838 10.58352,3.3867 15.93035,4.92795 4.63923,1.78099 9.50532,2.62871 14.42839,3.09597 4.60177,0.33826 9.21904,0.31326 13.83007,0.31202 3.87371,-0.0151 7.74739,-0.0292 11.6211,-0.0403 4.41818,0.003 8.83635,0.0135 13.25452,0.019 4.58269,0.01 9.16532,-0.0153 13.74799,-0.0172 4.18266,0.004 8.32336,-0.73813 12.4297,-1.46378 4.09276,-0.52048 8.15409,-1.17734 12.22899,-1.82393 3.59579,-0.22627 7.11454,-0.85561 10.67091,-1.38308 3.29549,-0.48355 6.62987,-0.55901 9.95426,-0.6259 2.84982,-0.0424 5.70005,-0.0345 8.55006,-0.0312 2.69997,0.006 5.39993,0 8.09987,0.0132 2.98273,0.007 5.96549,0 8.94821,-0.003 3.62987,-0.21831 7.25297,-1.21486 10.80355,-2.05176 4.33663,-1.42315 8.79022,-2.35969 13.31391,-2.91923 3.03202,-0.33205 6.08441,-0.34954 9.13064,-0.3547 2.64522,0.006 5.29042,0.018 7.93565,0.0241 2.19882,0.005 4.39761,0.006 6.5964,0.006 0,0 -15.91069,11.55869 -15.91069,11.55869 v 0 c -2.19985,0 -4.39968,-0.003 -6.59953,-0.009 -2.64038,-0.008 -5.28082,-0.0243 -7.92122,-0.0135 -2.97961,0.0308 -5.96493,0.10483 -8.92101,0.51617 -4.46678,0.6685 -8.8201,1.79213 -13.1635,3.01954 -3.67858,0.80113 -7.3674,1.90502 -11.16441,1.77596 -2.98056,-0.003 -5.96112,-0.008 -8.94168,-0.004 -2.70496,0.01 -5.40996,0 -8.11495,-0.004 -2.83125,-0.003 -5.66293,-0.0114 -8.49363,0.0538 -3.27551,0.0984 -6.55217,0.27252 -9.78966,0.81367 -3.54005,0.55875 -7.09136,0.92906 -10.64535,1.38102 -4.05427,0.65593 -8.12607,1.16041 -12.17922,1.8193 -4.17529,0.71522 -8.40301,1.28831 -12.64878,1.20671 -4.56681,-0.003 -9.13365,-0.0276 -13.70049,-0.0169 -4.44075,0.006 -8.88149,0.0177 -13.3222,0.0348 -3.86445,0.005 -7.72895,0.0204 -11.59341,0.01 -4.64521,-0.0225 -9.30042,-0.0558 -13.92822,-0.49774 -4.98078,-0.61372 -9.86152,-1.67973 -14.59111,-3.38942 -5.36519,-1.53715 -10.66061,-3.26014 -15.95601,-5.02385 -4.94173,-1.64431 -9.93497,-3.23154 -15.06286,-4.18113 0,0 16.14395,-11.19825 16.14395,-11.19825 z"
       inkscape:connector-curvature="0"
       style="stroke-width:0.26458332" />
    <path
       id="path59"
       d="m 839.23443,298.71384 c 0.14034,-5.11334 0.0673,-10.22909 0.0552,-15.34348 0.19119,-3.75142 -0.33168,-7.45427 -0.7829,-11.16484 -0.2204,-3.55385 -0.6218,-7.0758 -1.08974,-10.60373 -0.49824,-3.50885 -0.66249,-7.04702 -0.7656,-10.58524 -0.0695,-2.99587 -0.0839,-5.99284 -0.0665,-8.98937 0.0198,-4.41725 0.0635,-8.83436 0.0935,-13.25155 0.0381,-6.60943 0.0337,-13.21861 0.0143,-19.82806 -0.0301,-5.50458 -0.0161,-11.00924 -0.037,-16.51381 0.0499,-3.91488 -0.18309,-7.8404 0.0517,-11.75036 0.41037,-2.77942 2.05105,-5.11633 2.96283,-7.73753 0.73343,-2.43991 0.81675,-4.99671 0.88361,-7.52411 0.0401,-2.63719 0.0201,-5.27482 0.0114,-7.91216 -0.009,-2.64739 -0.0116,-5.29479 -0.0132,-7.94218 -1.6e-4,-0.44109 0,-0.88215 0,-1.32321 0,0 17.52214,-8.92865 17.52214,-8.92865 v 0 c 1.1e-4,0.44092 2.1e-4,0.88188 0,1.32283 0,2.64586 0.003,5.2917 0.0106,7.93753 0.008,2.65075 0.0262,5.30159 0.0103,7.95234 -0.0368,2.6779 -0.0776,5.37684 -0.64587,8.00611 -0.69448,2.65954 -1.99099,4.95887 -3.15254,7.41534 -0.58674,3.8326 -0.0383,7.76777 -0.26479,11.63048 -0.0206,5.51714 -0.007,11.03434 -0.0369,16.55146 -0.0193,6.60519 -0.0241,13.21009 0.0119,19.81523 0.0278,4.38861 0.0692,8.77723 0.0773,13.16593 0.0122,2.98521 -0.0164,5.97056 0.0251,8.95561 0.0656,3.47684 0.19545,6.95638 0.64397,10.40853 0.4745,3.53663 0.98875,7.04966 1.12543,10.62135 0.42447,3.79524 1.07572,7.57113 0.81084,11.4064 -0.0122,5.09564 -0.0858,10.19265 0.0552,15.2872 0,0 -17.51028,8.92194 -17.51028,8.92194 z"
       inkscape:connector-curvature="0"
       style="stroke-width:0.26458332" />
    <path
       id="path67"
       d="m 517.58,-195.36476 c 6.33182,0.65397 12.69831,0.86566 19.05844,1.0224 5.44499,0.11335 10.89141,0.1057 16.33728,0.10861 4.621,0.005 9.24195,-0.0122 13.8629,-0.0257 3.83439,-0.003 7.66879,-0.013 11.50318,-0.007 3.87652,0.006 7.75306,0.004 11.62958,-0.004 2.9836,-0.0647 5.89536,-0.14473 8.81295,0.50183 2.30431,0.5402 4.66952,0.66773 7.02574,0.75404 2.59766,0.0683 5.19658,0.0595 7.79489,0.0577 2.64756,-0.004 5.29511,-0.007 7.94269,-0.008 2.85168,-0.22786 5.43668,0.39055 7.95742,1.67751 2.51619,1.34186 5.26336,1.88947 8.07257,2.14054 3.75362,0.23267 7.51798,0.21002 11.27718,0.20222 3.48784,-0.0193 6.97574,-0.0257 10.46363,-0.0375 3.10846,-0.0111 6.21689,-0.003 9.32535,-0.007 2.81985,-0.004 5.63973,-0.006 8.4596,-0.008 2.65152,0 5.30302,0 7.95454,0 3.27269,-0.005 6.54529,0.0193 9.81795,0.0315 3.67773,0.003 7.35544,-0.0135 11.03315,-0.0228 3.45996,-0.003 6.91988,0.0148 10.37984,0.014 2.25306,-0.003 4.50609,-0.009 6.75913,-0.014 0,0 -15.88561,11.54157 -15.88561,11.54157 v 0 c -2.24018,-0.005 -4.48033,-0.0111 -6.7205,-0.014 -3.47292,0 -6.94579,0.0167 -10.41871,0.014 -3.65688,-0.009 -7.3138,-0.0254 -10.97071,-0.0228 -3.3016,0.0122 -6.60315,0.0361 -9.90481,0.0315 -2.65059,-6e-5 -5.30122,-6e-5 -7.95181,0 -2.81271,-0.003 -5.62544,-0.004 -8.43815,-0.008 -3.10549,-0.003 -6.21096,0.006 -9.31648,0.004 -3.4748,-2.7e-4 -6.94957,0.0146 -10.42437,0.003 -3.82169,-0.0172 -7.65807,0.0436 -11.46408,-0.35229 -2.94547,-0.43561 -5.77011,-1.26021 -8.42933,-2.62943 -2.41546,-0.95266 -4.90027,-1.11392 -7.48491,-0.98219 -2.6481,0.003 -5.29619,0.007 -7.94429,0.007 -2.62012,-0.004 -5.24185,-0.003 -7.85943,-0.13221 -2.41884,-0.15441 -4.82282,-0.43101 -7.19047,-0.96727 -2.82154,-0.43693 -5.68595,-0.17026 -8.53064,-0.25162 -3.87268,-0.008 -7.74539,-0.0103 -11.6181,-0.004 -3.8296,0.006 -7.65918,-0.003 -11.48879,-0.003 -4.60486,-0.008 -9.20975,-0.0151 -13.81461,-0.014 -5.43115,-0.0114 -10.86254,-0.0524 -16.29182,-0.20664 -6.44475,-0.20744 -12.88558,-0.51763 -19.31554,-1.00928 0,0 15.99515,-11.37934 15.99515,-11.37934 z"
       inkscape:connector-curvature="0"
       style="stroke-width:0.26458332" />
    <path
       id="path75"
       d="m 833.01368,157.86023 c -4.93027,-1.69624 -10.14463,-2.12429 -15.21963,-3.14886 -3.66045,-0.87633 -7.36862,-1.7095 -10.87569,-3.09727 -3.3727,-1.35564 -6.82596,-2.39664 -10.40014,-3.05067 -3.01575,-0.49739 -6.07478,-0.5633 -9.12365,-0.59221 -2.66401,-0.008 -5.32802,0.01 -7.99203,0.0175 -3.82408,-0.0167 -7.64816,-0.0214 -11.47226,-0.0249 -3.95359,-0.01 -7.90718,0.0106 -11.86074,0.0225 -2.81342,0.008 -5.62684,0.0106 -8.44026,0.0116 -2.83168,0.005 -5.6633,-0.008 -8.49498,-0.008 -2.5292,-0.60206 -5.16816,-0.71546 -7.6672,-1.41062 -2.92706,-0.87607 -5.98919,-1.00418 -9.02004,-1.14488 -3.39307,-0.12174 -6.78892,-0.11057 -10.1836,-0.10319 -3.37794,-0.005 -6.75587,-0.003 -10.13381,0.006 -2.89766,0.008 -5.79533,0.0122 -8.69299,0.014 -2.65221,0.003 -5.30445,0.003 -7.95666,0.003 -2.61479,-0.0538 -5.23811,0.41408 -7.62232,-0.82931 -2.09193,-1.70955 -2.42483,-4.2786 -2.63705,-6.80765 -0.11533,-3.8064 -0.032,-7.61634 -0.0254,-11.42412 0.003,-3.24718 -0.003,-6.49436 -0.006,-9.74154 -0.003,-2.67308 -0.003,-5.34614 -0.003,-8.01923 -0.13988,-2.68856 0.12853,-5.30831 1.00939,-7.85283 0.93413,-2.114894 1.15424,-4.424336 1.77083,-6.629294 0.76409,-2.225755 0.88836,-4.575546 1.1988,-6.886549 0.28932,-2.678483 1.19954,-5.091244 2.37958,-7.480908 0.89813,-2.433823 1.62343,-4.836927 3.05094,-7.030085 2.16019,-2.517087 2.96881,-5.348658 3.44283,-8.5657 0.42821,-3.903848 0.43175,-7.836191 0.43096,-11.758321 -0.27276,-3.142589 0.23968,-6.058482 1.34249,-8.985541 1.05302,-2.54389 2.82237,-4.680188 4.06186,-7.117107 0.8681,-2.524495 1.22587,-5.158316 2.02832,-7.714085 1.28463,-3.409633 2.79628,-6.659563 3.63789,-10.220537 0.6245,-4.536943 1.5367,-9.0252284 2.23861,-13.5512438 0.7443,-5.15381868 1.02458,-10.3567705 1.16597,-15.5571292 -0.10893,-3.716576 0.1261,-7.329779 0.95221,-10.953697 0.96853,-3.715676 1.36972,-7.527899 1.59546,-11.349752 0.14772,-3.237203 0.15791,-6.478799 0.15547,-9.718728 0.0151,-3.769095 0.0161,-7.538217 0.003,-11.307312 0.006,-3.444425 -0.014,-6.888798 -0.0251,-10.33317 -0.009,-3.009979 0.005,-6.019879 0,-9.029859 -0.005,-2.807202 -0.009,-5.614405 -0.0106,-8.421634 -0.008,-2.853849 0.0114,-5.707592 0.0119,-8.56144 0,-2.922932 -0.0169,-5.845863 0,-8.768768 0.007,-3.00051 -0.003,-6.00104 -0.007,-9.00155 -0.004,-2.69504 -0.005,-5.39012 -0.005,-8.08519 0,-2.6434 -2.7e-4,-5.2868 -2.1e-4,-7.9302 2e-5,-2.6449 5e-5,-5.28984 5e-5,-7.93474 3e-5,-2.64581 3e-5,-5.29162 3e-5,-7.93742 0,-2.64586 0,-5.2917 0,-7.93756 0,-2.64583 0,-5.29166 0,-7.9375 -0.31324,-2.98352 0.49299,-5.73106 1.29693,-8.55686 0.80378,-2.80326 1.10522,-5.70042 1.26974,-8.60047 0.11268,-2.66033 0.0991,-5.32386 0.0956,-7.98597 0,0 17.52084,-8.93109 17.52084,-8.93109 v 0 c 0.006,2.69298 0.0214,5.38676 -0.0582,8.0789 -0.126,3.02355 -0.36095,6.05173 -1.1075,8.99585 -0.70355,2.6955 -1.84586,5.2182 -1.49497,8.07152 0,2.64583 0,5.29166 0,7.9375 0,2.64586 0,5.29169 0,7.93755 0,2.64581 0,5.29161 2e-5,7.93742 0,2.64488 3e-5,5.28979 6e-5,7.93467 5e-5,2.64348 1.3e-4,5.28696 -2.1e-4,7.93043 0,2.69685 -0.003,5.39369 -0.005,8.09054 -0.004,3.00273 -0.0132,6.00548 -0.007,9.00824 0.0159,2.92333 -0.003,5.84668 0,8.770039 0,2.849827 0.0204,5.699574 0.0119,8.549428 -0.003,2.810827 -0.005,5.621655 -0.0106,8.432482 -0.004,3.009662 0.01,6.019245 0,9.02888 -0.0106,3.451198 -0.0293,6.902423 -0.0188,10.353648 -0.008,3.764122 0.004,7.528243 0.0309,11.292285 -0.003,3.277817 0.0238,6.557248 -0.13509,9.832419 -0.2099,3.913955 -0.49903,7.841932 -1.45743,11.657092 -0.28054,1.18618 -0.64995,2.353071 -0.86633,3.552639 -0.42024,2.329577 -0.079,4.712838 -0.26255,7.059639 -0.19245,5.285608 -0.53083,10.5696544 -1.19271,15.8192787 -0.63204,4.54382185 -1.52284,9.0416855 -2.03155,13.5996097 -0.37809,1.8819816 -0.77309,3.7600206 -1.44066,5.5667006 -1.1457,3.100705 -0.23151,0.275088 -1.49775,3.147722 -0.23611,0.535702 -0.39762,1.101275 -0.59645,1.651926 -0.82021,2.608209 -1.48741,5.169058 -1.89958,7.873206 -0.9534,2.631122 -2.7211,4.71342 -4.09149,7.129727 -1.29857,2.662211 -2.00763,5.296985 -1.71653,8.289528 -0.0236,3.997801 -0.051,8.001794 -0.37026,11.988985 -0.33015,3.329781 -0.63646,6.740366 -2.96027,9.349131 -0.47103,0.690219 -1.04153,1.310587 -1.4932,2.013638 -0.9294,1.446742 -1.10649,3.151637 -1.67325,4.736465 -1.01534,2.333308 -2.48452,4.369012 -2.60623,7.021036 -0.51808,2.330741 -0.33916,4.77782 -1.07823,7.077604 -0.69945,2.239434 -0.97522,4.534535 -1.72071,6.765423 -0.9647,2.347489 -1.60452,4.636875 -1.3371,7.222622 -1.6e-4,2.675867 -8e-5,5.351757 -0.008,8.027647 -0.0116,3.26178 -0.0347,6.52348 -0.066,9.78516 -0.0279,3.74867 -0.0542,7.49887 0.0548,11.24654 0.0875,1.64722 -0.0709,3.93814 1.53762,4.89082 2.33548,0.5388 4.78703,0.10041 7.16193,0.24061 2.65094,6e-5 5.30185,1.1e-4 7.95279,0 2.88661,0.003 5.77321,0.004 8.65981,0.008 3.38365,0.003 6.76725,-0.006 10.1509,-0.0135 3.4085,0.0156 6.81839,0.0403 10.22345,0.2092 3.1237,0.2104 6.23856,0.50906 9.26057,1.37732 2.44756,0.42495 4.90324,0.91305 7.38273,1.0722 2.83937,0 5.67869,-0.0138 8.51807,-0.008 2.80252,0 5.60504,0.003 8.40756,0.0119 3.93324,0.0122 7.86649,0.0323 11.79975,0.0209 3.85453,-0.006 7.70901,-0.0119 11.56341,-0.048 2.67007,-0.008 5.34053,-0.0272 8.01028,0.0235 3.11008,0.0905 6.22546,0.27586 9.27884,0.91692 3.61442,0.80245 7.13232,1.92421 10.57111,3.29962 3.47686,1.19096 7.06543,2.07139 10.6508,2.86734 5.15736,0.96488 10.36068,1.73447 15.39682,3.26265 0,0 -16.20359,11.06578 -16.20359,11.06578 z"
       inkscape:connector-curvature="0"
       style="stroke-width:0.26458332" />
    <path
       id="path81"
       d="m 718.95895,-181.6023 c 0.69734,-6.16768 1.94164,-12.25225 2.84869,-18.39034 0.61727,-4.19545 0.88638,-8.4282 0.99817,-12.66373 0.0914,-3.70176 0.0726,-7.40476 0.051,-11.10718 -0.0388,-3.30589 -0.0284,-6.61146 -0.006,-9.91735 0.0848,-6.14283 0.0945,-12.28677 0.0647,-18.43011 -0.069,-4.71048 -0.0634,-9.41969 -0.0201,-14.13012 0.0555,-5.69854 0.0122,-11.39743 -0.0214,-17.096 -0.0418,-3.88961 -0.0201,-7.77936 -0.0318,-11.6691 -0.0127,-3.05462 -0.0225,-6.10926 -0.0276,-9.16393 -0.004,-2.65967 -0.004,-5.31937 -0.004,-7.97904 2e-5,-2.64033 1.3e-4,-5.28063 2.1e-4,-7.92096 5e-5,-2.64528 5e-5,-5.29053 8e-5,-7.93581 -0.0672,-2.75992 0.14541,-5.53 -0.10263,-8.28153 -0.50864,-2.65872 -0.85807,-5.32723 -1.03386,-8.02754 -0.15859,-2.91066 -0.17759,-5.82629 -0.19064,-8.74043 -0.0434,-2.70135 0.0924,-5.40653 -0.0993,-8.10255 -0.47143,-3.30353 -0.81338,-6.62117 -1.02952,-9.95061 -0.16388,-2.82898 -0.18433,-5.66327 -0.1964,-8.49609 -0.005,-2.64726 0,-5.29452 0.003,-7.94178 -0.13917,-1.64738 -0.0411,-0.81426 -0.29943,-2.49881 0,0 17.37238,-9.21215 17.37238,-9.21215 v 0 c 0.32184,1.83253 0.17113,0.90453 0.45061,2.78426 -0.003,2.64573 -0.007,5.29145 -0.009,7.93718 0.003,2.80501 0.003,5.6111 0.11869,8.4142 0.16595,3.30205 0.44144,6.59929 0.99645,9.86168 0.37534,2.74289 0.15902,5.51215 0.20534,8.27598 0,2.88198 -0.003,5.76536 0.1246,8.64516 0.15097,2.66671 0.44815,5.31212 0.99782,7.92948 0.37812,2.80713 0.15558,5.64814 0.21386,8.47543 3e-5,2.64525 3e-5,5.2905 8e-5,7.93572 8e-5,2.64028 1.9e-4,5.28053 2.1e-4,7.92078 -1.3e-4,2.66094 -1.5e-4,5.32188 -0.004,7.98285 -0.005,3.06404 -0.0148,6.12804 -0.0276,9.19208 -0.0116,3.90054 0.01,7.8011 -0.0318,11.70154 -0.0335,5.70584 -0.077,11.41203 -0.0214,17.11788 0.0439,4.71725 0.0481,9.43329 -0.0204,14.15063 -0.0296,6.12055 -0.0214,12.24174 0.0673,18.36176 0.0262,3.30142 0.0432,6.60263 0.0233,9.90421 -0.004,3.71615 0.022,7.43233 -0.003,11.14835 -0.12507,4.33636 -0.43516,8.66589 -1.05781,12.96196 -0.94522,6.06679 -2.25181,12.09715 -2.69409,18.22691 0,0 -17.60691,8.72712 -17.60691,8.72712 z"
       inkscape:connector-curvature="0"
       style="stroke-width:0.26458332" />
    <path
       id="path83"
       d="m 586.55735,-369.35907 c 0.18428,-6.45848 0.1388,-12.92072 0.0975,-19.38086 -0.0593,-4.63881 -0.0535,-9.27788 -0.0447,-13.91693 0.0127,-4.85642 0.0214,-9.71277 -0.004,-14.56915 -0.0225,-3.32737 -0.0405,-6.65477 -0.0494,-9.98222 0.0122,-3.2607 0,-6.52119 0.0337,-9.78178 0.0459,-4.36139 0.0177,-8.72295 -0.007,-13.08435 -0.014,-3.74935 -8e-5,-7.49884 0.0138,-11.2482 0.0206,-3.91246 -0.009,-7.82495 -0.0271,-11.73736 -0.013,-2.81388 -0.0164,-5.62779 -0.0183,-8.44169 -0.0896,-2.63016 -0.11324,-5.15487 0.80243,-7.64528 1.87711,-3.50258 3.32944,-7.18606 4.66537,-10.92627 1.29532,-3.74496 1.99758,-7.63665 2.34162,-11.57284 0.18158,-2.79793 0.0675,-5.58981 0.46566,-8.36962 0.48525,-2.57746 0.74168,-5.1831 0.88226,-7.7993 0.0423,-1.55195 1.03203,-3.90378 -0.53089,-4.95732 -2.3963,-0.53752 -4.86346,-0.55698 -7.30687,-0.58556 -3.30922,0.11983 -6.55166,-0.59524 -9.84366,-0.86618 -4.85577,-0.33243 -9.7242,-0.39797 -14.58952,-0.43044 -4.02183,-0.002 -8.04365,-0.008 -12.06548,-0.0142 -4.38425,-0.0152 -8.76847,0.004 -13.1527,0.0217 -2.95706,0.0125 -5.91418,0.0172 -8.87127,0.0195 -3.31385,-0.0216 -6.62776,-0.0161 -9.94164,-0.0102 -2.81934,0.14096 -5.69476,-0.28602 -8.47423,0.26078 -2.92949,1.2867 -6.09894,1.76056 -9.25415,2.09159 -3.52329,0.1247 -6.98224,0.42658 -10.42574,1.20275 -5.52469,0.75114 -10.89242,2.2604 -16.28325,3.62768 -4.57806,0.9123 -8.86714,2.77833 -13.38512,3.91436 -3.30843,1.05011 -6.36592,2.66274 -9.46877,4.18896 -2.72381,1.3057 -5.68452,1.69745 -8.66122,1.88429 -2.65988,0.20803 -5.26367,0.85098 -7.93221,1.11951 -3.09144,0.25416 -6.19749,0.2259 -9.29682,0.22586 -4.0037,-0.004 -8.00743,-0.006 -12.01116,-1.1e-4 -3.25085,0.0127 -6.50171,0.003 -9.75259,0.006 -3.20381,-0.003 -6.40763,-0.002 -9.61144,0.003 -2.78162,0.005 -5.56326,0.006 -8.34488,0.007 -3.32121,-0.0224 -6.64244,-0.0166 -9.96368,-0.0107 -0.51339,0.001 -1.02679,0.002 -1.54022,0.003 0,0 15.8868,-11.54245 15.8868,-11.54245 v 0 c 0.51086,0.001 1.02172,0.002 1.53258,0.003 3.33105,0.006 6.6621,0.0116 9.9931,-0.0107 2.77489,0.001 5.54979,0.003 8.32471,0.007 3.20115,0.005 6.40226,0.006 9.60343,0.004 3.24196,0.003 6.48396,-0.004 9.72589,0.0155 3.99902,0.0129 7.99825,0.0248 11.99717,-0.008 3.07914,-0.0421 6.16762,-0.0659 9.22792,-0.44798 2.65425,-0.36788 5.27682,-0.96732 7.9624,-1.07473 2.86009,-0.34822 5.627,-1.0401 8.1792,-2.42876 3.11266,-1.55975 6.32565,-2.96003 9.69422,-3.87013 4.43008,-1.26338 8.75046,-2.90852 13.28185,-3.8083 5.43896,-1.40863 10.90337,-2.69106 16.44867,-3.61851 3.49689,-0.60342 7.01042,-0.80302 10.54015,-1.11766 3.16598,-0.47205 6.18998,-1.41759 9.30336,-2.10641 2.85893,-0.13187 5.72238,-0.0326 8.58364,-0.0557 3.32319,0.006 6.64641,0.0114 9.9696,-0.0101 2.93966,0.002 5.87931,0.007 8.81894,0.0179 4.36951,0.0152 8.73902,0.0308 13.10857,0.009 4.0264,-0.0114 8.05309,-0.0349 12.07918,0.0331 4.89397,0.0781 9.78961,0.18931 14.67255,0.54885 3.28747,0.29117 6.55346,0.81985 9.86541,0.70606 2.79233,0.10852 5.76752,0.12582 8.16591,1.74035 1.68624,1.85216 2.01406,4.06269 1.30604,6.46708 -0.10427,2.68006 -0.28014,5.3616 -0.78491,8.00109 -0.49536,2.73925 -0.49499,5.46244 -0.56555,8.24438 -0.30358,4.09669 -0.97417,8.15094 -2.24864,12.06825 -1.21753,3.73196 -2.42459,7.56918 -4.4514,10.94187 -0.29255,0.66519 -0.68213,1.28959 -0.92136,1.97575 -0.5556,1.59363 -0.0672,3.36051 -0.22776,5.00159 -0.003,2.82012 -0.006,5.64025 -0.0183,8.46035 -0.0177,3.9216 -0.0477,7.84327 -0.0271,11.76492 0.0138,3.74473 0.0276,7.48958 0.0138,11.23429 -0.0243,4.36372 -0.0529,8.72759 -0.007,13.09128 0.0335,3.24916 0.0214,6.49822 0.0336,9.74748 -0.009,3.34422 -0.027,6.6884 -0.0494,10.03255 -0.0254,4.8578 -0.0169,9.71555 -0.004,14.57338 0.009,4.65423 0.0143,9.30849 -0.0447,13.96249 -0.0408,6.42702 -0.0886,12.85621 0.0975,19.28151 0,0 -17.51028,8.92193 -17.51028,8.92193 z"
       inkscape:connector-curvature="0"
       style="stroke-width:0.26458332" />
    <path
       id="path85"
       d="m 721.16444,-380.03959 c -1.72659,-5.90454 -3.75693,-11.71371 -5.96014,-17.45601 -1.45933,-3.57098 -2.40001,-7.28599 -2.82548,-11.11208 -0.14759,-3.50054 -0.6503,-6.96471 -0.87482,-10.46006 -0.30893,-6.69452 -0.3982,-13.39718 -0.47009,-20.09775 -0.0518,-4.3247 -0.0969,-8.64948 -0.1189,-12.97445 -0.0116,-2.74206 -0.0111,-5.48416 -0.0111,-8.22624 -0.006,-2.82763 0.0137,-5.65516 0.0145,-8.48277 -0.003,-2.86793 -0.008,-5.73585 -0.0106,-8.60378 0.004,-3.18614 0.0241,-6.37219 0.0204,-9.55836 0.0143,-3.34976 -0.003,-6.69956 -0.0122,-10.04931 -0.0209,-3.1296 0.005,-6.25907 0.0254,-9.38858 0.0523,-4.73685 0.0383,-9.47417 0.0132,-14.21115 -0.0214,-3.24873 -0.0373,-6.49748 -0.045,-9.74627 -0.003,-2.71152 -0.013,-5.42307 0.004,-8.13455 0.0169,-3.66704 0.0309,-7.33424 0.0302,-11.00135 -0.008,-3.28751 -0.0238,-6.57499 -0.0322,-9.8625 -0.004,-1.81017 -0.006,-3.62034 -0.006,-5.43051 0,0 17.52145,-8.92762 17.52145,-8.92762 v 0 c 0,1.81237 -0.003,3.62474 -0.006,5.4371 -0.008,3.29846 -0.0241,6.5969 -0.0322,9.89536 0,3.65684 0.0132,7.31378 0.0302,10.97056 0.0175,2.70996 0.007,5.42 0.005,8.13 -0.008,3.26407 -0.0236,6.52811 -0.045,9.79212 -0.0249,4.73246 -0.0393,9.46526 0.0132,14.19759 0.0209,3.12089 0.0462,6.24173 0.0254,9.36272 -0.009,3.35387 -0.0265,6.70779 -0.0122,10.06167 -0.004,3.17922 0.0164,6.35831 0.0204,9.5375 -0.003,2.8715 -0.008,5.743 -0.0103,8.61451 0,2.82316 0.0212,5.64624 0.0132,8.46942 -0.003,2.74835 -0.005,5.49672 -0.0233,8.24503 -0.0301,4.35217 -0.0788,8.70426 -0.0779,13.05658 0.0271,6.65042 0.0527,13.30696 0.48223,19.94618 0.29107,3.46152 0.91845,6.87983 0.99092,10.35283 0.29006,3.68943 1.07146,7.28681 2.41604,10.74653 2.13535,5.82308 4.13062,11.69008 6.17011,17.54711 0,0 -17.22165,9.36053 -17.22165,9.36053 z"
       inkscape:connector-curvature="0"
       style="stroke-width:0.26458332" />
    <text
       xml:space="preserve"
       style="font-style:normal;font-weight:normal;font-size:11.28888893px;line-height:1.25;font-family:sans-serif;letter-spacing:0px;word-spacing:0px;fill:#000000;fill-opacity:1;stroke:none;stroke-width:0.26458332"
       x="140.22917"
       y="-652.85413"
       id="text91"><tspan
         sodipodi:role="line"
         id="tspan89"
         x="140.22917"
         y="-652.85413"
         style="font-size:50.79999924px;stroke-width:0.26458332">1</tspan></text>
    <text
       xml:space="preserve"
       style="font-style:normal;font-weight:normal;font-size:50.79999924px;line-height:1.25;font-family:sans-serif;letter-spacing:0px;word-spacing:0px;fill:#000000;fill-opacity:1;stroke:none;stroke-width:0.26458332"
       x="16.370258"
       y="-383.53503"
       id="text95"><tspan
         sodipodi:role="line"
         id="tspan93"
         x="16.370258"
         y="-383.53503"
         style="stroke-width:0.26458332">2</tspan></text>
    <text
       xml:space="preserve"
       style="font-style:normal;font-weight:normal;font-size:50.79999924px;line-height:1.25;font-family:sans-serif;letter-spacing:0px;word-spacing:0px;fill:#000000;fill-opacity:1;stroke:none;stroke-width:0.26458332"
       x="329.7438"
       y="-655.98291"
       id="text99"><tspan
         sodipodi:role="line"
         id="tspan97"
         x="329.7438"
         y="-655.98291"
         style="stroke-width:0.26458332">3</tspan></text>
    <text
       xml:space="preserve"
       style="font-style:normal;font-weight:normal;font-size:50.79999924px;line-height:1.25;font-family:sans-serif;letter-spacing:0px;word-spacing:0px;fill:#000000;fill-opacity:1;stroke:none;stroke-width:0.26458332"
       x="424.45743"
       y="-551.91486"
       id="text119"><tspan
         sodipodi:role="line"
         id="tspan117"
         x="424.45743"
         y="-551.91486"
         style="stroke-width:0.26458332">8</tspan></text>
    <text
       xml:space="preserve"
       style="font-style:normal;font-weight:normal;font-size:50.79999924px;line-height:1.25;font-family:sans-serif;letter-spacing:0px;word-spacing:0px;fill:#000000;fill-opacity:1;stroke:none;stroke-width:0.26458332"
       x="549.573"
       y="-473.57147"
       id="text123"><tspan
         sodipodi:role="line"
         id="tspan121"
         x="549.573"
         y="-473.57147"
         style="stroke-width:0.26458332">9</tspan></text>
    <text
       xml:space="preserve"
       style="font-style:normal;font-weight:normal;font-size:50.79999924px;line-height:1.25;font-family:sans-serif;letter-spacing:0px;word-spacing:0px;fill:#000000;fill-opacity:1;stroke:none;stroke-width:0.26458332"
       x="423.28812"
       y="-382.36572"
       id="text127"><tspan
         sodipodi:role="line"
         id="tspan125"
         x="423.28812"
         y="-382.36572"
         style="stroke-width:0.26458332">10</tspan></text>
    <text
       xml:space="preserve"
       style="font-size:50.79999924px;font-style:normal;font-weight:normal;line-height:1.25;letter-spacing:0px;word-spacing:0px;fill:#000000;fill-opacity:1;stroke:none;font-family:sans-serif"
       x="653.64105"
       y="-528.52881"
       id="text131"><tspan
         sodipodi:role="line"
         id="tspan129"
         x="653.64105"
         y="-528.52881">14</tspan></text>
    <text
       xml:space="preserve"
       style="font-size:50.79999924px;font-style:normal;font-weight:normal;line-height:1.25;letter-spacing:0px;word-spacing:0px;fill:#000000;fill-opacity:1;stroke:none;font-family:sans-serif"
       x="534.37201"
       y="-223.34036"
       id="text135"><tspan
         sodipodi:role="line"
         id="tspan133"
         x="534.37201"
         y="-223.34036">11</tspan></text>
    <text
       xml:space="preserve"
       style="font-style:normal;font-weight:normal;font-size:50.79999924px;line-height:1.25;font-family:sans-serif;letter-spacing:0px;word-spacing:0px;fill:#000000;fill-opacity:1;stroke:none;stroke-width:0.26458332"
       x="721.46069"
       y="107.57267"
       id="text155"><tspan
         sodipodi:role="line"
         id="tspan153"
         x="721.46069"
         y="107.57267"
         style="stroke-width:0.26458332">17</tspan></text>
    <text
       xml:space="preserve"
       style="font-style:normal;font-weight:normal;font-size:50.79999924px;line-height:1.25;font-family:sans-serif;letter-spacing:0px;word-spacing:0px;fill:#000000;fill-opacity:1;stroke:none;stroke-width:0.26458332"
       x="760.04773"
       y="271.27527"
       id="text159"><tspan
         sodipodi:role="line"
         id="tspan157"
         x="760.04773"
         y="271.27527"
         style="stroke-width:0.26458332">18</tspan></text>
    <path
       style="fill:#000000;fill-opacity:1;fill-rule:nonzero;stroke:none"
       id="path3054"
       d="m 1381.5572,1219.709 c -0.5675,13.2172 -0.6479,26.4525 -0.6209,39.6802 0.772,14.0398 2.094,28.0656 4.7953,41.8712 2.3261,11.532 3.4164,23.2115 3.9718,34.9425 0.4142,10.0737 0.4693,20.157 0.4989,30.2376 -0.2006,11.8351 -0.1676,23.6713 -0.2772,35.5073 0.045,14.6225 -0.1291,29.2433 -0.208,43.8653 -0.072,15.1865 0.056,30.3729 0.2341,45.5583 -0.2538,12.863 -3.5608,25.3364 -6.4909,37.7828 -3.6296,12.0184 -8.1767,23.7266 -12.0389,35.669 -4.5701,14.7363 -7.9336,29.7869 -11.6193,44.7557 -3.0937,11.5049 -4.3264,23.314 -4.8974,35.1743 -0.3414,10.3276 -0.2356,20.6627 -0.1778,30.9937 0.057,8.9416 0.08,17.8835 0.092,26.8253 0.01,8.8223 0.01,17.6446 0.01,26.4668 -0.1505,10.0501 -0.082,20.1018 -0.051,30.1525 0.01,6.8158 -0.056,13.6309 -0.05,20.4468 0,0 -57.8045,29.4529 -57.8045,29.4529 l 0,0 c 0.01,-6.7991 -0.056,-13.5972 -0.05,-20.3961 0.031,-10.0334 0.101,-20.068 -0.05,-30.1007 -6e-4,-8.8202 -0,-17.6403 -0.01,-26.4605 -0.01,-8.9509 -0.019,-17.9019 -0.021,-26.8528 0.01,-10.4738 0.032,-20.9497 0.3691,-31.4192 0.4642,-12.282 1.1257,-24.6029 4.5551,-36.491 3.9465,-14.9961 7.4773,-30.0795 11.4812,-45.0633 3.5689,-11.935 7.4542,-23.6968 12.0812,-35.2854 3.1651,-11.911 5.8637,-24.0706 7.1272,-36.3319 0.1767,-15.2649 0.3057,-30.5309 0.2339,-45.7969 -0.078,-14.5553 -0.2529,-29.1092 -0.1934,-43.6648 -0.096,-11.7549 -0.036,-23.5096 -0.2013,-35.2638 0.042,-10.0393 0.1247,-20.0808 -0.1261,-30.1182 -0.4179,-11.4505 -1.2324,-22.9054 -3.4172,-34.1745 -2.607,-14.2677 -3.8751,-28.6817 -4.9584,-43.1436 0.027,-13.0167 -0.043,-26.0418 -0.6208,-39.0475 0,0 58.4309,-29.772 58.4309,-29.772 z"
       inkscape:connector-curvature="0"
       transform="matrix(0.28222222,0,0,0.28222222,0,-703)" />
    <path
       style="fill:#000000;fill-opacity:1;fill-rule:nonzero;stroke:none"
       id="path3056"
       d="m 1292.6268,1813.5351 c -15.0417,1.6095 -30.1812,1.9589 -45.2896,2.4709 -15.9604,0.4652 -31.9325,0.5311 -47.8993,0.5566 -13.698,0.1594 -27.3947,0.032 -41.0926,-0.043 -14.7904,-0.074 -29.581,-0 -44.3711,0.1031 -11.8475,0.01 -23.694,0.081 -35.5413,0.01 -13.1618,-0.704 -26.1424,0.8016 -39.1965,2.2012 -13.1244,2.7264 -26.267,5.0005 -39.64636,5.8834 -12.50038,0.8646 -24.82281,3.28 -37.33848,4.2462 -11.02868,0.78 -22.08572,1.0353 -33.13919,1.0275 -11.61839,-0.01 -23.23676,-0.062 -34.8552,-0.067 -11.04369,0.062 -22.0872,0.01 -33.13091,0.029 -9.73191,0.029 -19.46382,0.055 -29.19576,0.069 -9.52527,0.043 -19.04998,-0.046 -28.57517,-0.048 -9.60709,0.013 -19.21416,0.036 -28.82125,0.047 -8.90079,0.01 -17.80158,0.01 -26.70237,0.011 -8.83074,4e-4 -17.66149,10e-5 -26.49224,0 -8.83736,-2e-4 -17.67471,-2e-4 -26.51207,-2e-4 -11.04992,-0.1202 -22.10048,-0.08 -33.1507,-0.1272 -10.79205,-0.3063 -21.58825,-0.4335 -32.3831,-0.5958 0,0 50.67633,-36.8185 50.67633,-36.8185 l 0,0 c 11.34151,-0.1639 22.68418,-0.2952 34.02318,-0.5958 11.16696,-0.047 22.33425,-0.01 33.50092,-0.1273 8.83752,0 17.67503,0 26.51255,-1e-4 8.83079,-2e-4 17.66157,-4e-4 26.49236,-10e-5 8.89059,8e-4 17.78119,0 26.67179,0.011 9.56358,0.012 19.12714,0.034 28.69072,0.047 9.56907,-0 19.13766,-0.09 28.7068,-0.048 9.66838,0.013 19.33674,0.039 29.00508,0.071 11.00388,0.024 22.0076,-0.022 33.01136,0.065 11.6542,0.019 23.30863,0.024 34.96244,-0.085 10.888,-0.1844 21.78997,-0.3079 32.64037,-1.332 12.436,-1.3282 24.7794,-3.4685 37.2785,-4.1468 13.245,-1.3804 26.2854,-3.95 39.4508,-5.8978 13.2442,-1.3626 26.4627,-2.3338 39.7929,-1.8017 11.8424,-0.075 23.6838,-0.01 35.5263,0.01 14.6884,0.1081 29.3773,0.1824 44.0662,0.122 13.7124,-0.06 27.4236,-0.1547 41.1359,-0 15.8218,-0.021 31.6447,-0.01 47.4612,-0.4965 15.3812,-0.5301 30.911,-1.0283 45.9992,-4.3162 0,0 -52.2717,39.5772 -52.2717,39.5772 z"
       inkscape:connector-curvature="0"
       transform="matrix(0.28222222,0,0,0.28222222,0,-703)" />
    <path
       style="fill:#000000;fill-opacity:1;fill-rule:nonzero;stroke:none"
       id="path3060"
       d="m 687.70862,1803.0721 c -0.46041,10.1223 -0.33395,20.262 -0.29961,30.3921 0.0903,10.7129 -0.0747,21.4252 -0.0896,32.1381 -1.04605,13.7666 -2.30534,27.5278 -5.30156,41.017 -4.99417,20.9142 -8.26442,42.1753 -10.40386,63.5559 -1.85256,19.2635 -2.11415,38.6236 -2.25534,57.9593 0.76188,14.317 -1.98318,28.3231 -4.73114,42.2754 -2.2867,9.9671 -2.62963,20.1933 -3.82676,30.3025 -1.71813,8.713 -3.00957,17.4698 -3.69131,26.3232 -0.059,9.7854 -1.61376,19.4167 -3.55263,28.9816 -2.62669,9.4661 -4.28023,19.0978 -5.26079,28.858 -0.75754,11.514 -0.85595,23.0591 -0.83209,34.5939 -0.74576,13.061 -2.55649,26.0275 -4.7321,38.9173 -1.8247,13.998 -4.3365,27.8923 -6.27216,41.8741 -1.48549,12.3993 -3.83318,24.6536 -5.25281,37.0643 -1.15845,13.3528 -1.12922,26.7258 -2.54745,40.058 -1.39153,12.5811 -4.41009,24.884 -6.06926,37.4318 -1.63323,15.5582 -1.80892,31.2262 -1.83873,46.8556 -0.0784,14.7199 0.0506,29.4395 0.1613,44.1589 -0.0281,11.8244 0.12299,23.6483 0.208,35.4722 0.0629,9.172 0.0753,18.3442 0.0826,27.5164 0.004,8.8133 0.003,17.6266 0.002,26.4398 -0.026,9.9198 -0.0495,19.8401 -0.14405,29.7596 -0.0989,11.5987 -0.0435,23.1969 0.0308,34.7956 -0.36789,10.6266 1.82806,21.1018 3.09018,31.6092 1.04971,9.3427 1.34529,18.7461 1.35281,28.1404 -0.30467,12.579 -0.0385,25.1613 -0.091,37.7418 -0.33769,10.65 1.87874,21.1329 3.16821,31.6569 1.47892,7.8177 4.29395,15.2571 6.62436,22.8343 2.09627,7.6465 5.00422,14.9356 6.5279,22.7468 0.91938,9.4415 2.57667,18.7748 3.94738,28.1571 1.34385,9.448 1.72172,18.9877 1.93571,28.5161 -0.085,11.1816 -0.0657,22.3629 -0.0153,33.5447 0.0487,9.4896 0.0703,18.9792 0.0818,28.4689 0.008,8.843 0.007,17.6861 0.007,26.5291 -3e-4,8.8289 -6.3e-4,17.6579 -8e-4,26.4868 -1.5e-4,8.8381 -1.6e-4,17.6763 -1.7e-4,26.5144 0,0 -58.00407,29.5546 -58.00407,29.5546 l 0,0 c -2e-5,-8.8381 -4e-5,-17.6761 -2.7e-4,-26.5142 -2.7e-4,-8.8286 -7.9e-4,-17.6572 -0.001,-26.4858 -4e-5,-8.8472 -9.5e-4,-17.6945 0.0121,-26.5417 0.0183,-9.5269 0.0529,-19.0538 0.12684,-28.5806 0.0745,-11.1107 0.16366,-22.2229 -0.13588,-33.3316 -0.11664,-9.3091 -0.30944,-18.6352 -1.43645,-27.8879 -1.23525,-9.2918 -3.36723,-18.4221 -4.09981,-27.7693 -1.28583,-7.6363 -4.13494,-14.6867 -6.11337,-22.1319 -2.36994,-7.9865 -5.57743,-15.703 -7.03001,-23.9557 -1.11101,-10.8165 -3.37522,-21.567 -3.20265,-32.4643 -0.0308,-12.5135 0.28608,-25.0316 -0.14383,-37.5414 -0.1825,-9.1913 -0.20911,-18.3975 -1.06492,-27.5593 -1.08451,-10.7692 -3.28305,-21.4609 -3.31511,-32.297 0.074,-11.6091 0.12998,-23.2178 0.0308,-34.827 -0.095,-9.8705 -0.11798,-19.7419 -0.14397,-29.6128 -6.1e-4,-8.814 -0.002,-17.6281 0.002,-26.4421 0.008,-9.1991 0.0206,-18.3982 0.0796,-27.5971 0.0787,-11.8841 0.21747,-23.7684 0.16098,-35.6529 0.0733,-14.7929 0.13286,-29.5857 0.16197,-44.3788 0.17101,-15.7663 0.0456,-31.5551 1.17393,-47.2917 1.21521,-12.6535 4.20551,-24.9111 6.08202,-37.4571 1.68456,-13.275 1.83428,-26.5579 2.47617,-39.9151 1.11403,-12.5419 3.68639,-24.8399 5.17465,-37.3191 2.06328,-14.0415 4.832,-27.9653 6.41705,-42.0745 1.93254,-12.5903 3.72022,-25.1887 4.93912,-37.8754 0.0458,-11.6349 -0.18901,-23.2771 0.36737,-34.9033 0.52996,-10.0825 2.01904,-20.0585 4.87296,-29.7668 2.40304,-9.0962 3.6469,-18.5393 3.79938,-27.9381 0.52139,-9.0304 1.43982,-18.0345 3.49219,-26.8638 2.01695,-10.1349 1.41932,-20.7046 4.11619,-30.7733 2.87173,-13.6626 6.24475,-27.3215 5.7262,-41.41 0.31059,-19.6569 1.0542,-39.3082 2.82017,-58.8947 2.28092,-21.3439 4.77058,-42.7154 9.09644,-63.7513 2.95902,-13.0248 4.33325,-26.2327 5.50941,-39.5305 -0.0149,-10.6825 -0.18019,-21.3643 -0.0896,-32.0469 0.0339,-10.028 0.16673,-20.0666 -0.29961,-30.0867 0,0 58.43086,-29.772 58.43086,-29.772 z"
       inkscape:connector-curvature="0"
       transform="matrix(0.28222222,0,0,0.28222222,0,-703)" />
    <path
       style="fill:#000000;fill-opacity:1;fill-rule:nonzero;stroke:none"
       id="path3062"
       d="m 1265.451,3560.5398 c -2.353,-12.6103 -6.5362,-24.7541 -9.1695,-37.3018 -1.7871,-11.361 -3.2224,-22.7268 -5.3126,-34.0405 -1.7358,-9.4289 -2.0877,-19.0072 -3.5764,-28.4688 -1.7897,-13.3655 -2.5932,-26.867 -3.0346,-40.3408 -0.4432,-11.8207 -0.4057,-23.6486 -0.4614,-35.475 0.1008,-11.5728 0.3982,-23.1038 -1.022,-34.6043 -1.9965,-12.2622 -2.5522,-24.6645 -2.8498,-37.0622 -0.9529,-12.0891 -2.957,-24.0542 -4.097,-36.1264 -0.8191,-12.0132 -0.6709,-24.0608 -0.777,-36.094 -0.1297,-13.4735 0.1564,-26.946 0.1364,-40.4198 -0.4395,-14.0666 0.1568,-28.0435 1.7559,-42.0139 0.612,-10.2405 3.4768,-20.1119 5.2308,-30.1725 0.9642,-10.6677 1.9019,-21.2915 3.4403,-31.8986 1.4535,-9.3543 2.0316,-18.8005 2.3408,-28.2512 0.8961,-8.9698 2.7313,-17.7935 3.6679,-26.7648 2.5784,-38.0565 10.3383,-24.0913 63.0959,-54.9522 8.9354,-2.2147 17.7878,-4.2935 26.9821,-5.2551 9.6848,-0.8397 19.4136,-0.6913 29.1239,-0.7117 12.7485,0.1269 25.4973,0.1418 38.2467,0.175 12.1081,-0.06 24.2161,-0.04 36.3242,-0.077 11.1045,-0.081 22.209,0.019 33.3135,0.023 10.44,-0.024 20.88,-0.072 31.32,-0.098 11.2738,0.017 22.5471,0.1313 33.8211,0.1297 10.8072,-0.032 21.6143,-0.093 32.4215,-0.1253 11.438,0.049 22.876,0.1177 34.3141,0.1152 10.8545,0.012 21.4662,-2.6632 32.2795,-3.5431 10.1597,-0.7656 20.3496,-0.9271 30.5333,-1.0157 9.1697,-0.035 18.3399,-0.063 27.5094,0.023 12.6623,0.123 25.3251,0.1852 37.9879,0.1405 13.7003,0.011 27.4003,0.047 41.1004,0.046 12.229,-0.089 24.4581,-0.075 36.6873,-0.1154 11.8837,1.7624 23.8075,3.0733 35.7974,3.8119 8.8782,0.3162 17.4056,3.0171 26.2236,4.0748 4.9633,1.3361 10.584,-0.367 15.5123,0.7487 6.7408,1.526 0.2754,1.2107 3.3758,1.3003 -63.5931,39.9859 -55.5174,49.5538 -56.8303,15.7228 -0.2744,-9.1234 0.067,-18.1723 -1.4402,-27.1982 -2.2167,-8.5311 -5.5641,-16.6939 -8.29,-25.0601 -2.7164,-8.7772 -3.4141,-17.9418 -3.8273,-27.064 -0.6173,-8.1519 0.851,-16.4931 -1.5521,-24.3997 -3.4677,-7.7391 -5.3835,-15.8887 -6.5004,-24.2552 -0.9404,-8.8169 -0.9543,-17.6958 -0.9941,-26.5521 0.4441,-7.8314 2.4885,-15.435 3.4577,-23.2138 0.7471,-8.6471 2.5256,-17.1924 4.3212,-25.6764 2.5354,-7.3449 4.0835,-14.8606 4.886,-22.5728 1.2736,-7.6383 2.9579,-15.2141 4.4698,-22.8181 3.0343,-10.1856 4.1209,-20.6861 4.7326,-31.2497 0.726,-15.7398 2.3831,-31.4504 4.9387,-46.9975 2.218,-14.7282 3.9745,-29.5107 6.0597,-44.2612 1.5694,-11.5143 2.1795,-23.1204 2.4728,-34.7272 0.214,-10.5287 0.2595,-21.0598 0.2622,-31.5906 0.082,-13.5585 0.1785,-27.1178 0.1373,-40.6767 0.4321,-12.3452 -0.2417,-24.5186 -2.0016,-36.7265 -0.9314,-9.6036 -3.0327,-18.9962 -5.3067,-28.355 -2.6502,-12.167 -5.5825,-24.3006 -7.9673,-36.5332 -1.9626,-10.1808 -7.0557,-19.2928 -10.9198,-28.8039 -3.7564,-9.4341 -4.3517,-19.5134 -4.8199,-29.5304 -0.1978,-10.8244 -0.227,-21.651 -0.2482,-32.4769 -0.01,-7.6763 -0.01,-15.3525 -0,-23.0287 0,0 57.9954,-29.5404 57.9954,-29.5404 l 0,0 c -0.018,7.7 -0.046,15.3999 -0.111,23.0996 -0.085,10.7493 -0.2526,21.5035 0.078,32.2502 0.3087,9.3001 0.7272,18.7052 3.8547,27.5696 3.8328,9.9926 9.2188,19.4505 11.2915,30.0575 2.0242,12.1172 4.9535,24.0572 7.8904,35.9755 2.7508,9.5054 4.7804,19.2282 5.6184,29.0967 1.6558,12.549 2.7341,25.0337 2.0093,37.7176 -0.031,13.4992 0.079,26.9989 0.202,40.4975 0.029,10.5556 0.1765,21.1133 -0,31.6679 -0.3545,11.9191 -1.1119,23.8253 -2.7385,35.6466 -1.9771,14.8361 -4.1415,29.6379 -6.0452,44.476 -2.6527,15.2725 -4.9125,30.6394 -5.0053,46.1845 -0.4482,10.7409 -0.5157,21.6384 -3.6178,32.0292 -2.036,7.2095 -2.1736,14.8784 -4.9037,21.9508 -0.5352,8.0379 -1.3612,16.1089 -4.3101,23.6826 -2.8618,7.7704 -3.5954,16.5327 -4.8118,24.6737 -0.6696,7.6554 -1.875,15.1997 -3.8678,22.6318 0.011,8.6179 -0.023,17.2514 0.6834,25.847 0.8674,7.9696 2.4735,15.7409 5.9489,23.0347 3.0792,8.4788 2.132,17.2187 2.3107,26.1219 0.2613,8.5734 0.6448,17.2161 2.9788,25.5253 2.6914,8.6889 6.2547,17.0756 8.735,25.8412 1.6242,9.246 1.7795,18.4973 1.9297,27.8724 1.6972,35.3505 8.2186,17.3945 -55.6183,51.4831 -4.434,-2.3806 -12.803,0.2096 -17.7079,-1.8187 -8.5313,-1.3993 -16.9163,-3.7952 -25.6134,-3.9692 -11.8537,-1.0225 -23.639,-2.7798 -35.5166,-3.425 -12.1234,-0.041 -24.2468,-0.026 -36.3701,-0.115 -13.7412,-0 -27.4821,0.036 -41.2234,0.043 -12.7792,-0.05 -25.5583,0.01 -38.3371,0.106 -9.172,0.065 -18.3442,-0.012 -27.5161,0.076 -10.0296,0.1286 -20.073,0.3382 -30.0555,1.402 -10.7853,1.3383 -21.5521,3.3614 -32.4709,2.8622 -11.5438,-0 -23.0874,0.066 -34.6311,0.1151 -10.6923,-0.032 -21.3844,-0.093 -32.0767,-0.1252 -11.3931,-0 -22.7854,0.1127 -34.1783,0.1298 -10.3501,-0.026 -20.7002,-0.074 -31.0504,-0.098 -11.1259,0 -22.2518,0.1053 -33.3776,0.022 -12.0238,-0.041 -24.0474,-0.028 -36.071,-0.1146 -12.8607,0 -25.7208,-0.043 -38.5808,0.1184 -9.6009,0.08 -19.2339,0.2001 -28.7673,1.4597 -8.7978,1.3977 -17.6781,3.3556 -25.7729,7.1552 17.4213,-10.3525 34.9493,-20.5277 52.264,-31.0576 0.9449,-0.5746 -2.2255,0.4954 -3.1071,1.163 -0.8078,0.6118 -1.3261,1.5704 -1.7294,2.5 -1.7172,3.9575 -0.7089,8.3837 -1.336,12.5166 -0.7351,8.8845 -2.0415,17.677 -3.8753,26.4042 -0.2517,9.7108 -0.7226,19.4285 -2.2072,29.0423 -1.6088,10.5848 -3.0299,21.0763 -3.3288,31.7963 -1.1422,10.2709 -4.697,19.9542 -5.7201,30.2185 -1.577,13.8135 -3.0864,27.5096 -2.273,41.4582 -0.038,13.4206 0.2037,26.8399 0.1139,40.2604 -0.016,11.8398 0.1016,23.6875 0.8122,35.5092 0.8437,12.268 2.4505,24.4485 3.7744,36.6703 0.4307,12.1487 1.0433,24.3057 2.8879,36.3376 1.5373,11.7541 1.6943,23.4613 1.4374,35.3125 -0.057,11.8086 -0.036,23.6186 0.1166,35.4263 0.3833,13.1644 0.7058,26.3867 2.9772,39.3933 1.6541,9.4363 2.4302,18.877 3.6003,28.3824 1.9153,11.3568 3.501,22.6811 4.7792,34.1269 2.4929,12.505 6.1833,24.6972 10.1788,36.7953 0,0 -57.8193,30.9129 -57.8193,30.9129 z"
       inkscape:connector-curvature="0"
       transform="matrix(0.28222222,0,0,0.28222222,0,-703)" />
    <path
       style="fill:#000000;fill-opacity:1;fill-rule:nonzero;stroke:none"
       id="path3064"
       d="m 1310.8465,2306.8857 c -0.7817,14.3663 -0.5898,28.762 -0.7102,43.143 -0.1023,17.1854 0.033,34.3704 0.023,51.5559 0.052,19.2718 -0.2684,38.5412 -0.305,57.8126 -0.1754,23.0956 -0.1379,46.1906 4e-4,69.2862 0.046,19.214 0.2081,38.4273 0.2431,57.6415 -0.02,18.5636 -0,37.1265 -0.1279,55.6901 -0.1425,21.0387 -0.078,42.0787 -0.055,63.1178 0.1626,16.3686 0.2454,32.7377 0.4384,49.106 -0.01,13.0996 0.011,26.1991 0.058,39.2986 -0.04,12.2793 0.094,24.5564 -0.011,36.8356 -0.6421,14.3821 2.326,28.4371 4.8156,42.4987 2.444,12.5935 3.4576,25.3553 3.8399,38.1561 0.2692,11.1321 0.4447,22.2681 0.3499,33.4034 -0.038,10.1576 0.011,20.3153 0.036,30.4728 0.011,4.5492 0.016,9.0984 0.022,13.6476 0,0 -57.9867,29.5441 -57.9867,29.5441 l 0,0 c 0.01,-4.5595 0.014,-9.119 0.031,-13.6785 0.04,-10.1858 0.1165,-20.3716 0.1196,-30.5576 -0.062,-11.1074 0.1837,-22.2157 -0.052,-33.3224 -0.3938,-12.5436 -1.0124,-25.0994 -3.1219,-37.4948 -2.4778,-14.3467 -5.8939,-28.7077 -5.5925,-43.3519 -0.1055,-12.2756 0.031,-24.5492 -0.01,-36.825 0.046,-13.1192 0.065,-26.2383 0.058,-39.3575 0.1925,-16.5172 0.276,-33.0353 0.4384,-49.5528 0.022,-21.0203 0.087,-42.0415 -0.055,-63.0614 -0.1235,-18.5202 -0.1076,-37.0396 -0.1279,-55.5597 0.035,-19.2968 0.1967,-38.5927 0.243,-57.8892 0.1375,-23.0958 0.1768,-46.1909 5e-4,-69.2867 -0.036,-19.1678 -0.3579,-38.3335 -0.3051,-57.5017 -0.01,-17.1934 0.1254,-34.3862 0.023,-51.5794 -0.1194,-14.1397 0.083,-28.2953 -0.7102,-42.4194 0,0 58.4309,-29.772 58.4309,-29.772 z"
       inkscape:connector-curvature="0"
       transform="matrix(0.28222222,0,0,0.28222222,0,-703)" />
    <path
       style="fill:#000000;fill-opacity:1;fill-rule:nonzero;stroke:none"
       id="path3066"
       d="m 2600.88,464.75304 c 11.0419,-4.27843 22.9685,-5.30765 34.6552,-6.46925 10.8653,-0.90359 21.4624,-3.54747 32.3166,-4.7273 9.0032,-1.10513 17.7708,-3.43348 26.8349,-4.43727 13.4584,-1.06784 26.8756,1.215 40.2784,2.27291 13.7832,1.38561 27.821,2.62604 41.3825,5.5802 10.0336,1.69137 19.5152,5.34433 29.4797,7.32751 9.0164,1.51325 18.1847,1.60908 27.3021,1.73341 11.1304,-0.81229 21.7758,1.74805 32.4158,4.61818 12.0654,2.97354 24.5163,3.61042 36.8835,4.05061 12.8543,1.13414 25.4729,-0.47489 38.1985,-2.00813 11.5566,-1.27127 23.4997,-2.07909 34.5087,-6.04836 8.0068,-3.28257 16.5254,-4.31115 25.0803,-4.86464 8.7665,0.26048 17.1765,-2.19468 25.8107,-3.37214 9.9845,-0.62154 19.6668,-3.08704 29.6056,-4.16942 11.8121,-0.96519 23.6595,-1.31822 35.5055,-1.50175 4.7399,0.13828 9.1985,0.0792 13.8086,-0.98373 0,0 -52.224,38.98189 -52.224,38.98189 l 0,0 c -4.6717,0.17236 -9.3398,0.20636 -14.0149,0.22075 -11.6742,0.18625 -23.3799,0.46776 -34.9659,2.03644 -9.9269,1.54725 -19.7931,3.43781 -29.7957,4.46122 -8.6655,1.43942 -17.2805,2.92541 -26.0909,3.12066 -8.2861,1.02346 -16.2826,3.06495 -24.2085,5.68727 -11.4918,2.38674 -23.1004,3.97085 -34.7951,4.96892 -12.9322,1.43735 -25.8667,2.22032 -38.8785,1.20084 -12.7078,-0.76199 -25.4664,-1.76173 -37.8216,-5.03285 -10.3939,-2.61945 -20.8667,-3.73412 -31.601,-3.30786 -9.4481,-0.20699 -18.9411,-0.5204 -28.1795,-2.72992 -9.709,-2.42331 -19.2004,-5.67922 -29.0846,-7.4031 -13.4001,-2.38135 -26.9359,-4.28893 -40.5123,-5.26353 -13.3857,-1.02931 -26.8728,-2.87066 -40.2413,-0.62582 -8.9515,1.38176 -17.7507,3.65744 -26.805,4.33688 -10.659,1.45598 -21.2084,3.72013 -31.9692,4.36977 -11.9769,1.44811 -23.649,3.89249 -35.1503,7.55485 0,0 52.2717,-39.57724 52.2717,-39.57724 z"
       inkscape:connector-curvature="0"
       transform="matrix(0.28222222,0,0,0.28222222,0,-703)" />
    <path
       style="fill:#000000;fill-opacity:1;fill-rule:nonzero;stroke:none"
       id="path3068"
       d="m 3519.1509,2307.4237 c -15.9639,-0.5003 -31.9414,-0.4562 -47.912,-0.5663 -20.1073,-0.1662 -40.2149,0.1079 -60.3222,0.094 -18.3027,0.05 -36.6056,-0.057 -54.9081,5e-4 -15.5076,-0.026 -31.0144,0.1122 -46.5213,0.2408 -11.731,0.9288 -23.0797,3.8548 -34.5678,6.1748 -12.2478,1.968 -24.6706,2.4488 -37.0552,2.5525 -13.309,0.1823 -26.6191,0.1054 -39.9288,0.1162 -13.3439,0.023 -26.6867,-0.1 -40.0307,-0.048 -12.9836,-0.069 -25.9669,0 -38.9503,0.078 -10.7323,-0.5261 -21.1271,0.3316 -31.506,3.0902 -10.8058,3.2259 -21.9105,4.6125 -33.1183,5.323 -11.2567,0.4201 -22.5217,0.4975 -33.7848,0.5349 -9.2276,0.016 -18.4551,0 -27.6826,-0 -1.6319,-0.015 -3.2637,-0.029 -4.8956,-0.044 0,0 52.5542,-38.175 52.5542,-38.175 l 0,0 c 1.6695,-0.011 3.339,-0.023 5.0086,-0.034 9.1793,0.02 18.3587,0.059 27.538,0.084 11.1287,0 22.2765,0.033 33.3769,-0.8673 11.0079,-1.0741 21.8129,-3.2124 32.5147,-6.0085 10.7275,-1.9952 21.4938,-2.3895 32.3951,-1.9703 12.909,0.076 25.8178,0.1477 38.7271,0.088 13.3556,0.065 26.7106,-0.041 40.0662,0.027 13.2637,0.042 26.5301,0.053 39.7915,-0.2235 12.2481,-0.5025 24.5523,-1.0108 36.5738,-3.6303 11.6394,-2.4445 23.3257,-4.9129 35.2772,-5.0649 15.2859,0.1299 30.5717,0.2677 45.8584,0.2409 18.302,0.058 36.6044,-0.049 54.9066,5e-4 20.021,-0.014 40.0422,0.2611 60.0633,0.094 16.4903,-0.1115 32.9866,-0.077 49.4709,-0.5663 0,0 -52.9388,38.4622 -52.9388,38.4622 z"
       inkscape:connector-curvature="0"
       transform="matrix(0.28222222,0,0,0.28222222,0,-703)" />
    <path
       style="fill:#000000;fill-opacity:1;fill-rule:nonzero;stroke:none"
       id="path3070"
       d="m 3002.6319,2290.4746 c 1.4521,-13.7849 -0.486,-27.3196 -3.2384,-40.78 -2.5359,-17.2448 -7.8444,-33.8508 -12.0745,-50.7146 -3.6637,-15.2971 -8.7226,-30.1882 -12.2585,-45.5152 -2.748,-12.7654 -6.3708,-25.3037 -10.1521,-37.7929 -5.1971,-12.6441 -9.6824,-25.2718 -12.355,-38.696 -2.2397,-11.9619 -2.5418,-24.1487 -2.8052,-36.2795 0.3558,-9.9396 -0.4589,-19.722 -1.7961,-29.5534 -0.4696,-9.0523 -3.0853,-17.6798 -4.9491,-26.4835 -1.0166,-10.355 -3.1814,-20.5245 -4.4084,-30.8512 -1.4064,-13.1751 -1.6016,-26.4471 -1.908,-39.6839 -0.044,-13.8886 -2e-4,-27.778 0.076,-41.6667 0.089,-14.2239 -0.085,-28.4473 -0.056,-42.6714 0.1036,-16.518 4.5912,-32.7647 7.7465,-48.9242 3.6471,-17.1998 7.751,-34.2967 11.828,-51.3984 3.4642,-14.8532 6.8991,-29.7101 9.0505,-44.8173 1.765,-15.0165 2.0417,-30.1233 3.5916,-45.1615 2.0657,-17.4523 2.7169,-35.0048 3.0924,-52.559 0.6169,-17.7413 -0.081,-35.51 0.6658,-53.2425 1.0944,-12.6687 2.3441,-25.3197 3.0364,-38.0187 0.4131,-9.5331 0.5296,-19.0781 0.5967,-28.6192 -0.035,-15.7346 0.575,-31.4008 2.6638,-47.0033 3.6061,-14.9693 9.2425,-29.2213 12.3409,-44.3477 2.3651,-14.813 4.6477,-29.6185 6.0429,-44.5572 2.3679,-17.6127 5.8392,-34.9994 7.8726,-52.6683 1.969,-16.7992 1.3844,-33.7486 2.5954,-50.5829 1.4503,-12.1419 2.6605,-24.2959 3.2993,-36.5085 0.5272,-10.3764 0.5418,-20.7651 0.5262,-31.1516 -0,-10.7222 0.066,-21.4444 0.069,-32.1667 -0.7063,-9.0001 -2.17,-17.9093 -3.0879,-26.8926 0,0 57.4406,-29.9765 57.4406,-29.9765 l 0,0 c 0.858,9.1921 2.2939,18.3001 3.3348,27.4707 0.018,10.6971 0.1206,21.394 0.1146,32.0909 -0.052,10.5007 -0.037,21.0091 -0.456,31.5022 -0.7085,12.3479 -1.8664,24.6694 -3.6039,36.9174 -1.8687,16.9672 -1.3224,34.1429 -3.4627,51.1064 -1.6115,17.4849 -4.1116,34.8391 -7.0616,52.1469 -1.2216,15.1631 -3.8005,30.109 -5.8204,45.1724 -2.6792,15.2285 -7.5689,29.6751 -12.6138,44.2433 -2.7041,15.1362 -3.0971,30.4053 -2.3569,45.751 0.028,9.6512 0.12,19.3077 -0.4441,28.9485 -0.7897,12.8457 -2.2989,25.6167 -3.6961,38.4073 -1.6016,17.6378 -0.3663,35.3924 -0.9581,53.0812 -0.4319,17.6578 -0.9118,35.3416 -2.6953,52.924 -1.5252,15.1038 -1.88,30.2367 -3.4125,45.3414 -2.1098,15.3082 -5.0685,30.4574 -8.8367,45.4447 -4.3408,17.0405 -8.3795,34.1618 -12.3758,51.2858 -1.6968,9.104 -3.3625,18.1792 -4.9064,27.3071 -0.7723,4.5663 -2.1879,9.0303 -2.6505,13.6382 -0.2181,2.1729 -0.019,4.3675 -0.029,6.5512 0.022,14.2528 -0.1656,28.5047 -0.1039,42.7575 0.052,13.8103 0.018,27.6205 0.19,41.4302 0.038,13.0257 0.1937,26.0723 1.6063,39.0359 1.311,10.1083 3.6824,20.0147 4.6585,30.1633 1.7205,8.9953 4.473,17.7685 4.8397,26.9889 1.4385,10.0994 2.9785,20.0499 2.1258,30.3034 0.032,11.8413 0.1911,23.722 1.9554,35.4576 2.3452,13.295 6.9164,25.6381 12.0847,38.0758 3.7381,12.6755 7.7088,25.2821 10.4362,38.2302 3.01,15.4477 7.9081,30.4068 11.461,45.7317 4.005,16.9381 10.016,33.3469 12.8054,50.5694 2.8996,13.7271 4.7415,27.4947 4.6025,41.5673 0,0 -58.1768,29.6426 -58.1768,29.6426 z"
       inkscape:connector-curvature="0"
       transform="matrix(0.28222222,0,0,0.28222222,0,-703)" />
    <text
       xml:space="preserve"
       style="font-size:20.31999969px;font-style:normal;font-weight:normal;line-height:125%;letter-spacing:0px;word-spacing:0px;fill:#000000;fill-opacity:1;stroke:none;font-family:Sans"
       x="340.36377"
       y="-318.31958"
       id="text3072"
       sodipodi:linespacing="125%"><tspan
         sodipodi:role="line"
         id="tspan3074"
         x="340.36377"
         y="-318.31958"
         style="font-size:40.63999939px">4</tspan></text>
    <text
       xml:space="preserve"
       style="font-size:20.31999969px;font-style:normal;font-weight:normal;line-height:125%;letter-spacing:0px;word-spacing:0px;fill:#000000;fill-opacity:1;stroke:none;font-family:Sans"
       x="215.92871"
       y="-210.50716"
       id="text3072-1"
       sodipodi:linespacing="125%"><tspan
         sodipodi:role="line"
         id="tspan3074-7"
         x="215.92871"
         y="-210.50716"
         style="font-size:40.63999939px">5</tspan></text>
    <text
       xml:space="preserve"
       style="font-size:20.31999969px;font-style:normal;font-weight:normal;line-height:125%;letter-spacing:0px;word-spacing:0px;fill:#000000;fill-opacity:1;stroke:none;font-family:Sans"
       x="116.60548"
       y="149.23676"
       id="text3072-4"
       sodipodi:linespacing="125%"><tspan
         sodipodi:role="line"
         id="tspan3074-0"
         x="116.60548"
         y="149.23676"
         style="font-size:40.63999939px">6</tspan></text>
    <text
       xml:space="preserve"
       style="font-size:20.31999969px;font-style:normal;font-weight:normal;line-height:125%;letter-spacing:0px;word-spacing:0px;fill:#000000;fill-opacity:1;stroke:none;font-family:Sans"
       x="315.25192"
       y="287.32028"
       id="text3072-9"
       sodipodi:linespacing="125%"><tspan
         sodipodi:role="line"
         id="tspan3074-4"
         x="315.25192"
         y="287.32028"
         style="font-size:40.63999939px">7</tspan></text>
    <text
       xml:space="preserve"
       style="font-size:20.31999969px;font-style:normal;font-weight:normal;line-height:125%;letter-spacing:0px;word-spacing:0px;fill:#000000;fill-opacity:1;stroke:none;font-family:Sans"
       x="379.44867"
       y="134.70164"
       id="text3072-8"
       sodipodi:linespacing="125%"><tspan
         sodipodi:role="line"
         id="tspan3074-8"
         x="379.44867"
         y="134.70164"
         style="font-size:40.63999939px">13</tspan></text>
    <text
       xml:space="preserve"
       style="font-size:20.31999969px;font-style:normal;font-weight:normal;line-height:125%;letter-spacing:0px;word-spacing:0px;fill:#000000;fill-opacity:1;stroke:none;font-family:Sans"
       x="465.44806"
       y="-3.3818576"
       id="text3072-2"
       sodipodi:linespacing="125%"><tspan
         sodipodi:role="line"
         id="tspan3074-45"
         x="465.44806"
         y="-3.3818576"
         style="font-size:40.63999939px">12</tspan></text>
    <text
       xml:space="preserve"
       style="font-size:20.31999969px;font-style:normal;font-weight:normal;line-height:125%;letter-spacing:0px;word-spacing:0px;fill:#000000;fill-opacity:1;stroke:none;font-family:Sans"
       x="803.38928"
       y="-359.492"
       id="text3072-5"
       sodipodi:linespacing="125%"><tspan
         sodipodi:role="line"
         id="tspan3074-1"
         x="803.38928"
         y="-359.492"
         style="font-size:40.63999939px">15</tspan></text>
    <text
       xml:space="preserve"
       style="font-size:20.31999969px;font-style:normal;font-weight:normal;line-height:125%;letter-spacing:0px;word-spacing:0px;fill:#000000;fill-opacity:1;stroke:none;font-family:Sans"
       x="878.48737"
       y="-80.902443"
       id="text3072-7"
       sodipodi:linespacing="125%"><tspan
         sodipodi:role="line"
         id="tspan3074-11"
         x="878.48737"
         y="-80.902443"
         style="font-size:40.63999939px">16</tspan></text>
  </g>
</svg>
